<svg width="592" height="548" viewBox="0 0 592 548" fill="none" xmlns="http://www.w3.org/2000/svg">
<g clip-path="url(#clip0_158_25)">
<path d="M349.553 2.09018L433.519 2.09017L191.899 407.284L349.553 2.09018Z" fill="#F5A00F"/>
<path d="M349.553 2.09018L433.519 2.09017L191.899 407.284L349.553 2.09018Z" fill="#F5A00F"/>
<path d="M349.553 2.09018L433.519 2.09017L191.899 407.284L349.553 2.09018Z" fill="#F5A00F"/>
<path d="M349.553 2.09018L433.519 2.09017L191.899 407.284L349.553 2.09018Z" fill="#F5A00F"/>
<path d="M349.553 2.09018L433.519 2.09017L191.899 407.284L349.553 2.09018Z" stroke="black"/>
<path d="M326.162 2.71567L257.392 317.336L257.392 2.71522L326.162 2.71567Z" fill="#F5A00F"/>
<path d="M326.162 2.71567L257.392 317.336L257.392 2.71522L326.162 2.71567Z" fill="#F5A00F"/>
<path d="M326.162 2.71567L257.392 317.336L257.392 2.71522L326.162 2.71567Z" fill="#F5A00F"/>
<path d="M326.162 2.71567L257.392 317.336L257.392 2.71522L326.162 2.71567Z" fill="#F5A00F"/>
<path d="M326.162 2.71567L257.392 317.336L257.392 2.71522L326.162 2.71567Z" stroke="black"/>
<path d="M210.046 2.716L277.081 288.678L123.294 2.71599L210.046 2.716Z" fill="#F5A00F"/>
<path d="M210.046 2.716L277.081 288.678L123.294 2.71599L210.046 2.716Z" fill="#F5A00F"/>
<path d="M210.046 2.716L277.081 288.678L123.294 2.71599L210.046 2.716Z" fill="#F5A00F"/>
<path d="M210.046 2.716L277.081 288.678L123.294 2.71599L210.046 2.716Z" fill="#F5A00F"/>
<path d="M210.046 2.716L277.081 288.678L123.294 2.71599L210.046 2.716Z" stroke="black"/>
<path d="M84.661 -1.10469L274.361 302.939L15.9609 -1.10469L84.661 -1.10469Z" fill="#F5A00F"/>
<path d="M84.661 -1.10469L274.361 302.939L15.9609 -1.10469L84.661 -1.10469Z" fill="#F5A00F"/>
<path d="M84.661 -1.10469L274.361 302.939L15.9609 -1.10469L84.661 -1.10469Z" fill="#F5A00F"/>
<path d="M84.661 -1.10469L274.361 302.939L15.9609 -1.10469L84.661 -1.10469Z" fill="#F5A00F"/>
<path d="M84.661 -1.10469L274.361 302.939L15.9609 -1.10469L84.661 -1.10469Z" stroke="black"/>
<path d="M5.25237 192.163L5.25238 59.1446L266.052 296.748L5.25237 192.163Z" fill="#F5A00F"/>
<path d="M5.25237 192.163L5.25238 59.1446L266.052 296.748L5.25237 192.163Z" fill="#F5A00F"/>
<path d="M5.25237 192.163L5.25238 59.1446L266.052 296.748L5.25237 192.163Z" fill="#F5A00F"/>
<path d="M5.25237 192.163L5.25238 59.1446L266.052 296.748L5.25237 192.163Z" fill="#F5A00F"/>
<path d="M5.25237 192.163L5.25238 59.1446L266.052 296.748L5.25237 192.163Z" stroke="black"/>
<path d="M3.25204 216.115L286.192 275.987L3.2524 319.424L3.25204 216.115Z" fill="#F5A00F"/>
<path d="M3.25204 216.115L286.192 275.987L3.2524 319.424L3.25204 216.115Z" fill="#F5A00F"/>
<path d="M3.25204 216.115L286.192 275.987L3.2524 319.424L3.25204 216.115Z" fill="#F5A00F"/>
<path d="M3.25204 216.115L286.192 275.987L3.2524 319.424L3.25204 216.115Z" fill="#F5A00F"/>
<path d="M3.25204 216.115L286.192 275.987L3.2524 319.424L3.25204 216.115Z" stroke="black"/>
<path d="M560.13 0.508332L234.935 357.773L473.388 0.508159L560.13 0.508332Z" fill="#F5A00F"/>
<path d="M560.13 0.508332L234.935 357.773L473.388 0.508159L560.13 0.508332Z" fill="#F5A00F"/>
<path d="M560.13 0.508332L234.935 357.773L473.388 0.508159L560.13 0.508332Z" fill="#F5A00F"/>
<path d="M560.13 0.508332L234.935 357.773L473.388 0.508159L560.13 0.508332Z" fill="#F5A00F"/>
<path d="M560.13 0.508332L234.935 357.773L473.388 0.508159L560.13 0.508332Z" stroke="black"/>
<path d="M591.44 122.983L308.349 296.865L591.44 37.9724L591.44 122.983Z" fill="#F5A00F"/>
<path d="M591.44 122.983L308.349 296.865L591.44 37.9724L591.44 122.983Z" fill="#F5A00F"/>
<path d="M591.44 122.983L308.349 296.865L591.44 37.9724L591.44 122.983Z" fill="#F5A00F"/>
<path d="M591.44 122.983L308.349 296.865L591.44 37.9724L591.44 122.983Z" fill="#F5A00F"/>
<path d="M591.44 122.983L308.349 296.865L591.44 37.9724L591.44 122.983Z" stroke="black"/>
<path d="M590.997 224.621L116.729 355.91L590.997 157.255L590.997 224.621Z" fill="#F5A00F"/>
<path d="M590.997 224.621L116.729 355.91L590.997 157.255L590.997 224.621Z" fill="#F5A00F"/>
<path d="M590.997 224.621L116.729 355.91L590.997 157.255L590.997 224.621Z" fill="#F5A00F"/>
<path d="M590.997 224.621L116.729 355.91L590.997 157.255L590.997 224.621Z" fill="#F5A00F"/>
<path d="M590.997 224.621L116.729 355.91L590.997 157.255L590.997 224.621Z" stroke="black"/>
<path d="M590.497 316.572L144.352 383.998L590.497 247.178L590.497 316.572Z" fill="#F5A00F"/>
<path d="M590.497 316.572L144.352 383.998L590.497 247.178L590.497 316.572Z" fill="#F5A00F"/>
<path d="M590.497 316.572L144.352 383.998L590.497 247.178L590.497 316.572Z" fill="#F5A00F"/>
<path d="M590.497 316.572L144.352 383.998L590.497 247.178L590.497 316.572Z" fill="#F5A00F"/>
<path d="M590.497 316.572L144.352 383.998L590.497 247.178L590.497 316.572Z" stroke="black"/>
<path d="M590.497 357.433L590.497 426.828L195.039 304.927L590.497 357.433Z" fill="#F5A00F"/>
<path d="M590.497 357.433L590.497 426.828L195.039 304.927L590.497 357.433Z" fill="#F5A00F"/>
<path d="M590.497 357.433L590.497 426.828L195.039 304.927L590.497 357.433Z" fill="#F5A00F"/>
<path d="M590.497 357.433L590.497 426.828L195.039 304.927L590.497 357.433Z" fill="#F5A00F"/>
<path d="M590.497 357.433L590.497 426.828L195.039 304.927L590.497 357.433Z" stroke="black"/>
<path d="M590.497 470.785L590.497 546.498L218.071 263.8L590.497 470.785Z" fill="#F5A00F"/>
<path d="M590.497 470.785L590.497 546.498L218.071 263.8L590.497 470.785Z" fill="#F5A00F"/>
<path d="M590.497 470.785L590.497 546.498L218.071 263.8L590.497 470.785Z" fill="#F5A00F"/>
<path d="M590.497 470.785L590.497 546.498L218.071 263.8L590.497 470.785Z" fill="#F5A00F"/>
<path d="M590.497 470.785L590.497 546.498L218.071 263.8L590.497 470.785Z" stroke="black"/>
<path d="M392.125 545.838L317.697 285.53L482.345 545.837L392.125 545.838Z" fill="#F5A00F"/>
<path d="M392.125 545.838L317.697 285.53L482.345 545.837L392.125 545.838Z" fill="#F5A00F"/>
<path d="M392.125 545.838L317.697 285.53L482.345 545.837L392.125 545.838Z" fill="#F5A00F"/>
<path d="M392.125 545.838L317.697 285.53L482.345 545.837L392.125 545.838Z" fill="#F5A00F"/>
<path d="M392.125 545.838L317.697 285.53L482.345 545.837L392.125 545.838Z" stroke="black"/>
<path d="M255.824 551.306L293.855 269.968L352.632 551.306L255.824 551.306Z" fill="#F5A00F"/>
<path d="M255.824 551.306L293.855 269.968L352.632 551.306L255.824 551.306Z" fill="#F5A00F"/>
<path d="M255.824 551.306L293.855 269.968L352.632 551.306L255.824 551.306Z" fill="#F5A00F"/>
<path d="M255.824 551.306L293.855 269.968L352.632 551.306L255.824 551.306Z" fill="#F5A00F"/>
<path d="M255.824 551.306L293.855 269.968L352.632 551.306L255.824 551.306Z" stroke="black"/>
<path d="M225.782 551.307L93.1381 551.306L261.442 272.315L225.782 551.307Z" fill="#F5A00F"/>
<path d="M225.782 551.307L93.1381 551.306L261.442 272.315L225.782 551.307Z" fill="#F5A00F"/>
<path d="M225.782 551.307L93.1381 551.306L261.442 272.315L225.782 551.307Z" fill="#F5A00F"/>
<path d="M225.782 551.307L93.1381 551.306L261.442 272.315L225.782 551.307Z" fill="#F5A00F"/>
<path d="M225.782 551.307L93.1381 551.306L261.442 272.315L225.782 551.307Z" stroke="black"/>
<path d="M290.27 214.285L3.25049 433.481L3.25049 356.811L290.27 214.285Z" fill="#F5A00F"/>
<path d="M290.27 214.285L3.25049 433.481L3.25049 356.811L290.27 214.285Z" fill="#F5A00F"/>
<path d="M290.27 214.285L3.25049 433.481L3.25049 356.811L290.27 214.285Z" fill="#F5A00F"/>
<path d="M290.27 214.285L3.25049 433.481L3.25049 356.811L290.27 214.285Z" fill="#F5A00F"/>
<path d="M290.27 214.285L3.25049 433.481L3.25049 356.811L290.27 214.285Z" stroke="black"/>
<path d="M5.25049 469.745L398.828 158.122L5.25049 546.792L5.25049 469.745Z" fill="#F5A00F"/>
<path d="M5.25049 469.745L398.828 158.122L5.25049 546.792L5.25049 469.745Z" fill="#F5A00F"/>
<path d="M5.25049 469.745L398.828 158.122L5.25049 546.792L5.25049 469.745Z" fill="#F5A00F"/>
<path d="M5.25049 469.745L398.828 158.122L5.25049 546.792L5.25049 469.745Z" fill="#F5A00F"/>
<path d="M5.25049 469.745L398.828 158.122L5.25049 546.792L5.25049 469.745Z" stroke="black"/>
<path d="M85.2471 261.061C85.2471 159.187 172.08 76.5605 279.247 76.5605C386.414 76.5605 473.247 159.187 473.247 261.061C473.247 362.934 386.414 445.561 279.247 445.561C172.08 445.561 85.2471 362.934 85.2471 261.061Z" fill="#F5A00F" stroke="black"/>
</g>
<defs>
<clipPath id="clip0_158_25">
<rect width="592" height="548" fill="white"/>
</clipPath>
</defs>
</svg>